<?xml version="1.0" encoding="UTF-8" standalone="no"?><!DOCTYPE svg PUBLIC "-//W3C//DTD SVG 1.1//EN" "http://www.w3.org/Graphics/SVG/1.1/DTD/svg11.dtd"><svg width="100%" height="100%" viewBox="0 0 658 206" version="1.1" xmlns="http://www.w3.org/2000/svg" xmlns:xlink="http://www.w3.org/1999/xlink" xml:space="preserve" xmlns:serif="http://www.serif.com/" style="fill-rule:evenodd;clip-rule:evenodd;stroke-linejoin:round;stroke-miterlimit:2;"><g transform="matrix(1,0,0,0.885084,0,7.16594)"><g transform="matrix(250.965,0,0,250.965,666.73,176.709)"></g><text x="247.271px" y="176.709px" style="font-family:'AeroMaticsDisplayRegular', 'Aero Matics Display', sans-serif;font-size:250.965px;fill:#292d32;">ebus</text></g><path d="M76.039,205.219l-8.715,0c-49.792,0 -66.179,-14.874 -67.313,-61.389c-0.126,-2.269 0.882,-4.664 2.521,-6.303c1.638,-1.765 3.907,-2.647 6.303,-2.647c17.647,0 32.144,-14.622 32.144,-32.27c-0,-17.648 -14.497,-32.271 -32.144,-32.271c-2.522,0 -4.665,-0.882 -6.303,-2.647c-1.639,-1.639 -2.647,-4.034 -2.521,-6.303c1.134,-46.515 17.521,-61.389 67.313,-61.389l8.715,0l-0,7.979c-0,3.567 2.895,6.462 6.462,6.462l12.924,0c3.566,0 6.462,-2.895 6.462,-6.462l-0,-7.979l52.918,0c51.683,0 67.44,15.757 67.44,67.44l-0,70.339c-0,51.683 -15.757,67.44 -67.44,67.44l-52.918,0l-0,-6.429c-0,-3.567 -2.896,-6.462 -6.462,-6.462l-12.924,-0c-3.567,-0 -6.462,2.895 -6.462,6.462l-0,6.429Z" style="fill:#292d32;fill-rule:nonzero;"/><path d="M101.887,118.208c-0,-3.567 -2.896,-6.462 -6.462,-6.462l-12.924,-0c-3.567,-0 -6.462,2.895 -6.462,6.462l-0,48.199c-0,3.566 2.895,6.462 6.462,6.462l12.924,-0c3.566,-0 6.462,-2.896 6.462,-6.462l-0,-48.199Z" style="fill:url(#_Linear1);"/><path d="M101.887,40.362c-0,-3.566 -2.896,-6.462 -6.462,-6.462l-12.924,0c-3.567,0 -6.462,2.896 -6.462,6.462l-0,45.462c-0,3.567 2.895,6.462 6.462,6.462l12.924,0c3.566,0 6.462,-2.895 6.462,-6.462l-0,-45.462Z" style="fill:url(#_Linear2);"/><path d="M171.098,58.547c2.522,-2.522 2.522,-6.616 -0,-9.138l-9.139,-9.139c-2.522,-2.522 -6.617,-2.522 -9.138,0l-34.158,34.157c-2.522,2.522 -2.522,6.617 0,9.139l9.139,9.139c2.522,2.522 6.617,2.522 9.138,-0l34.158,-34.158Z" style="fill:#fff;"/><path d="M152.821,161.549c2.521,2.522 6.616,2.522 9.138,0l9.139,-9.138c2.522,-2.522 2.522,-6.617 -0,-9.139l-34.158,-34.157c-2.521,-2.522 -6.616,-2.522 -9.138,-0l-9.139,9.138c-2.522,2.522 -2.522,6.617 0,9.139l34.158,34.157Z" style="fill:#fff;"/><defs><linearGradient id="_Linear1" x1="0" y1="0" x2="1" y2="0" gradientUnits="userSpaceOnUse" gradientTransform="matrix(25.8479,0,0,61.123,76.0389,142.307)"><stop offset="0" style="stop-color:#eac65c;stop-opacity:1"/><stop offset="1" style="stop-color:#ebd56f;stop-opacity:1"/></linearGradient><linearGradient id="_Linear2" x1="0" y1="0" x2="1" y2="0" gradientUnits="userSpaceOnUse" gradientTransform="matrix(25.8479,0,0,58.3859,76.0389,63.0933)"><stop offset="0" style="stop-color:#eac65c;stop-opacity:1"/><stop offset="1" style="stop-color:#ebd56f;stop-opacity:1"/></linearGradient></defs></svg>