<?xml version="1.0" encoding="UTF-8" standalone="no"?><!DOCTYPE svg PUBLIC "-//W3C//DTD SVG 1.1//EN" "http://www.w3.org/Graphics/SVG/1.1/DTD/svg11.dtd"><svg width="100%" height="100%" viewBox="0 0 658 206" version="1.1" xmlns="http://www.w3.org/2000/svg" xmlns:xlink="http://www.w3.org/1999/xlink" xml:space="preserve" xmlns:serif="http://www.serif.com/" style="fill-rule:evenodd;clip-rule:evenodd;stroke-linejoin:round;stroke-miterlimit:2;"><g><path d="M334.888,99.794l-0,19.414l-55.144,0l0,25.814l55.144,-0l-0,19.414l-78.427,-0l0,-109.87l78.427,0l-0,19.415l-55.144,-0l0,25.813l55.144,0Z" style="fill:#fff;fill-rule:nonzero;"/><path d="M406.33,54.566c23.037,0 34.556,9.509 34.556,28.525l0,7.592c0,10.123 -5.065,16.378 -15.195,18.764c10.13,2.458 15.195,8.749 15.195,18.872l0,7.592c0,19.017 -11.519,28.525 -34.556,28.525l-53.061,-0l0,-109.87l53.061,0Zm-29.778,19.415l-0,25.813l29.778,0c7.515,0 11.273,-3.037 11.273,-9.111l0,-7.592c0,-6.073 -3.758,-9.11 -11.273,-9.11l-29.778,-0Zm-0,45.227l-0,25.814l29.778,-0c7.515,-0 11.273,-3.037 11.273,-9.111l0,-7.592c0,-6.074 -3.758,-9.111 -11.273,-9.111l-29.778,0Z" style="fill:#fff;fill-rule:nonzero;"/><path d="M551.541,54.566l0,81.345c0,19.017 -11.559,28.525 -34.679,28.525l-22.915,-0c-23.12,-0 -34.679,-9.508 -34.679,-28.525l-0,-81.345l23.282,0l0,81.345c0,6.074 3.799,9.111 11.397,9.111l22.915,-0c7.598,-0 11.396,-3.037 11.396,-9.111l0,-81.345l23.283,0Z" style="fill:#fff;fill-rule:nonzero;"/><path d="M569.923,164.436l-0,-19.414l53.06,-0c7.516,-0 11.274,-3.037 11.274,-9.111l-0,-7.592c-0,-6.074 -3.758,-9.111 -11.274,-9.111l-18.381,0c-23.12,0 -34.679,-9.508 -34.679,-28.525l-0,-7.592c-0,-19.016 11.559,-28.525 34.679,-28.525l52.938,0l-0,19.415l-52.938,-0c-7.598,-0 -11.397,3.037 -11.397,9.11l0,7.592c0,6.074 3.799,9.111 11.397,9.111l18.381,0c23.038,0 34.557,9.508 34.557,28.525l-0,7.592c-0,19.017 -11.519,28.525 -34.557,28.525l-53.06,-0Z" style="fill:#fff;fill-rule:nonzero;"/><path d="M76.039,205.219l-8.715,0c-49.792,0 -66.179,-14.874 -67.313,-61.389c-0.126,-2.269 0.882,-4.664 2.521,-6.303c1.638,-1.765 3.907,-2.647 6.303,-2.647c17.647,0 32.144,-14.622 32.144,-32.27c-0,-17.648 -14.497,-32.271 -32.144,-32.271c-2.522,0 -4.665,-0.882 -6.303,-2.647c-1.639,-1.639 -2.647,-4.034 -2.521,-6.303c1.134,-46.515 17.521,-61.389 67.313,-61.389l8.715,0l-0,7.979c-0,3.567 2.895,6.462 6.462,6.462l12.924,0c3.566,0 6.462,-2.895 6.462,-6.462l-0,-7.979l52.918,0c51.683,0 67.44,15.757 67.44,67.44l-0,70.339c-0,51.683 -15.757,67.44 -67.44,67.44l-52.918,0l-0,-6.429c-0,-3.567 -2.896,-6.462 -6.462,-6.462l-12.924,-0c-3.567,-0 -6.462,2.895 -6.462,6.462l-0,6.429Z" style="fill:#eacb62;fill-rule:nonzero;"/><path d="M101.887,118.208c-0,-3.567 -2.896,-6.462 -6.462,-6.462l-12.924,-0c-3.567,-0 -6.462,2.895 -6.462,6.462l-0,48.199c-0,3.566 2.895,6.462 6.462,6.462l12.924,-0c3.566,-0 6.462,-2.896 6.462,-6.462l-0,-48.199Z" style="fill:#292d32;"/><path d="M101.887,40.362c-0,-3.566 -2.896,-6.462 -6.462,-6.462l-12.924,0c-3.567,0 -6.462,2.896 -6.462,6.462l-0,45.462c-0,3.567 2.895,6.462 6.462,6.462l12.924,0c3.566,0 6.462,-2.895 6.462,-6.462l-0,-45.462Z" style="fill:#292d32;"/><path d="M171.098,58.547c2.522,-2.522 2.522,-6.616 -0,-9.138l-9.139,-9.139c-2.522,-2.522 -6.617,-2.522 -9.138,0l-34.158,34.157c-2.522,2.522 -2.522,6.617 0,9.139l9.139,9.139c2.522,2.522 6.617,2.522 9.138,-0l34.158,-34.158Z" style="fill:#292d32;"/><path d="M152.821,161.549c2.521,2.522 6.616,2.522 9.138,0l9.139,-9.138c2.522,-2.522 2.522,-6.617 -0,-9.139l-34.158,-34.157c-2.521,-2.522 -6.616,-2.522 -9.138,-0l-9.139,9.138c-2.522,2.522 -2.522,6.617 0,9.139l34.158,34.157Z" style="fill:#292d32;"/></g></svg>