<?xml version="1.0" encoding="UTF-8" standalone="no"?><!DOCTYPE svg PUBLIC "-//W3C//DTD SVG 1.1//EN" "http://www.w3.org/Graphics/SVG/1.1/DTD/svg11.dtd"><svg width="100%" height="100%" viewBox="0 0 810 810" version="1.1" xmlns="http://www.w3.org/2000/svg" xmlns:xlink="http://www.w3.org/1999/xlink" xml:space="preserve" xmlns:serif="http://www.serif.com/" style="fill-rule:evenodd;clip-rule:evenodd;stroke-linejoin:round;stroke-miterlimit:2;"><path d="M277.134,778.974l-31.761,0c-181.474,0 -241.2,-54.212 -245.334,-223.741c-0.46,-8.269 3.216,-16.999 9.188,-22.971c5.973,-6.432 14.242,-9.648 22.972,-9.648c64.319,-0 117.154,-53.294 117.154,-117.614c-0,-64.319 -52.835,-117.614 -117.154,-117.614c-9.189,-0 -16.999,-3.216 -22.972,-9.648c-5.972,-5.973 -9.648,-14.702 -9.188,-22.972c4.134,-169.528 63.86,-223.74 245.334,-223.74l31.761,-0l-0,29.08c-0,12.999 10.553,23.552 23.551,23.552l47.103,-0c12.999,-0 23.552,-10.553 23.552,-23.552l-0,-29.08l192.866,-0c188.366,-0 245.794,57.428 245.794,245.793l0,256.362c0,188.365 -57.428,245.793 -245.794,245.793l-192.866,0l-0,-23.432c-0,-12.999 -10.553,-23.552 -23.552,-23.552l-47.103,0c-12.998,0 -23.551,10.553 -23.551,23.552l-0,23.432Z" style="fill:#eacb62;fill-rule:nonzero;"/><path d="M371.34,461.849c-0,-12.999 -10.553,-23.552 -23.552,-23.552l-47.103,0c-12.998,0 -23.551,10.553 -23.551,23.552l-0,175.667c-0,12.999 10.553,23.552 23.551,23.552l47.103,-0c12.999,-0 23.552,-10.553 23.552,-23.552l-0,-175.667Z" style="fill:#292d32;"/><path d="M371.34,178.132c-0,-12.999 -10.553,-23.552 -23.552,-23.552l-47.103,0c-12.998,0 -23.551,10.553 -23.551,23.552l-0,165.692c-0,12.998 10.553,23.551 23.551,23.551l47.103,0c12.999,0 23.552,-10.553 23.552,-23.551l-0,-165.692Z" style="fill:#292d32;"/><path d="M623.588,244.409c9.192,-9.191 9.192,-24.116 0,-33.307l-33.307,-33.307c-9.191,-9.191 -24.115,-9.191 -33.306,0l-124.491,124.491c-9.192,9.191 -9.192,24.116 -0,33.307l33.307,33.307c9.191,9.191 24.115,9.191 33.306,-0l124.491,-124.491Z" style="fill:#292d32;"/><path d="M556.975,619.813c9.191,9.192 24.115,9.192 33.306,0l33.307,-33.306c9.192,-9.192 9.192,-24.116 0,-33.307l-124.491,-124.491c-9.191,-9.192 -24.115,-9.192 -33.306,-0l-33.307,33.307c-9.192,9.191 -9.192,24.115 -0,33.306l124.491,124.491Z" style="fill:#292d32;"/></svg>