<?xml version="1.0" encoding="UTF-8" standalone="no"?>
<!DOCTYPE svg PUBLIC "-//W3C//DTD SVG 1.1//EN" "http://www.w3.org/Graphics/SVG/1.1/DTD/svg11.dtd">
<svg width="100%" height="100%" viewBox="0 0 1480 353" version="1.1" xmlns="http://www.w3.org/2000/svg" xmlns:xlink="http://www.w3.org/1999/xlink" xml:space="preserve" xmlns:serif="http://www.serif.com/" style="fill-rule:evenodd;clip-rule:evenodd;stroke-linecap:square;stroke-miterlimit:1.5;">
    <g transform="matrix(1,0,0,1,-56.0992,-207.853)">
        <g transform="matrix(0.871407,0,0,0.771268,201.271,332.555)">
            <g transform="matrix(576,0,0,576,1552.35,262.452)">
            </g>
            <text x="266.192px" y="262.452px" style="font-family:'AeroMaticsDisplayRegular', 'Aero Matics Display', sans-serif;font-size:576px;">Kebus</text>
        </g>
        <g transform="matrix(0.168241,0,0,0.183793,-125.775,-113.356)">
            <clipPath id="_clip1">
                <rect x="879.561" y="1671.19" width="2859.3" height="2215.72"/>
            </clipPath>
            <g clip-path="url(#_clip1)">
                <path d="M3943.75,2290.63C3943.75,2061.34 3740.39,1875.19 3489.9,1875.19L1534.88,1875.19C1284.4,1875.19 1081.04,2061.34 1081.04,2290.63L1081.04,3121.52C1081.04,3350.81 1284.4,3536.96 1534.88,3536.96L3489.9,3536.96C3740.39,3536.96 3943.75,3350.81 3943.75,3121.52L3943.75,2290.63Z"/>
            </g>
        </g>
        <g transform="matrix(0.168241,0,0,0.183793,-125.775,-113.356)">
            <clipPath id="_clip2">
                <rect x="879.561" y="1671.19" width="2859.3" height="2215.72"/>
            </clipPath>
            <g clip-path="url(#_clip2)">
                <path d="M3943.75,2290.63C3943.75,2061.34 3740.39,1875.19 3489.9,1875.19L1534.88,1875.19C1284.4,1875.19 1081.04,2061.34 1081.04,2290.63L1081.04,3121.52C1081.04,3350.81 1284.4,3536.96 1534.88,3536.96L3489.9,3536.96C3740.39,3536.96 3943.75,3350.81 3943.75,3121.52L3943.75,2290.63Z"/>
            </g>
        </g>
        <g transform="matrix(0.711111,0,0,0.711111,57.1938,-2.39808e-14)">
            <path d="M540,325.25L540,754.75" style="fill:none;stroke:white;stroke-width:36.56px;stroke-dasharray:36.56,73.12,0,0;stroke-dashoffset:365.62;"/>
        </g>
        <g transform="matrix(0.711111,0,0,0.711111,57.1938,-2.39808e-14)">
            <path d="M540,325.25L540,754.75" style="fill:none;stroke:white;stroke-width:36.56px;stroke-dasharray:36.56,73.12,0,0;stroke-dashoffset:365.62;"/>
        </g>
        <g>
            <g transform="matrix(0.0452283,0,0,0.184755,144.775,335.04)">
                <rect x="320.287" y="293.514" width="486.316" height="453.145" style="fill:none;stroke:white;stroke-width:53.75px;stroke-linecap:round;"/>
            </g>
            <g transform="matrix(0.0452283,0,0,0.184755,275.179,335.04)">
                <rect x="320.287" y="293.514" width="486.316" height="453.145" style="fill:none;stroke:white;stroke-width:53.75px;stroke-linecap:round;"/>
            </g>
            <g transform="matrix(0.369203,0,0,0.369203,27.4346,183.456)">
                <path d="M806.603,339.026C806.603,313.907 786.209,293.514 761.09,293.514L365.8,293.514C340.681,293.514 320.287,313.907 320.287,339.026L320.287,701.146C320.287,726.265 340.681,746.659 365.8,746.659L761.09,746.659C786.209,746.659 806.603,726.265 806.603,701.146L806.603,339.026Z" style="fill:white;stroke:white;stroke-width:19.58px;stroke-linecap:round;"/>
            </g>
            <g transform="matrix(0.467835,0,0,0.184755,-28.087,260.483)">
                <path d="M806.603,352.128C806.603,319.778 796.231,293.514 783.455,293.514L343.435,293.514C330.659,293.514 320.287,319.778 320.287,352.128L320.287,688.044C320.287,720.394 330.659,746.659 343.435,746.659L783.455,746.659C796.231,746.659 806.603,720.394 806.603,688.044L806.603,352.128Z" style="fill:white;stroke:white;stroke-width:20.33px;"/>
            </g>
            <g transform="matrix(0.700293,0,0,0.692989,4.94799,9.94586)">
                <rect x="200.97" y="439.784" width="256.392" height="120.811"/>
            </g>
            <g transform="matrix(2.76943e-18,-0.0452283,0.0737526,4.51604e-18,141.169,456.684)">
                <rect x="320.287" y="293.514" width="486.316" height="453.145" style="stroke:white;stroke-width:118.17px;stroke-linecap:round;"/>
            </g>
            <g transform="matrix(2.76943e-18,-0.0452283,0.0737526,4.51604e-18,252.138,456.684)">
                <rect x="320.287" y="293.514" width="486.316" height="453.145" style="stroke:white;stroke-width:118.17px;stroke-linecap:round;stroke-linejoin:round;"/>
            </g>
        </g>
    </g>
</svg>
